<?xml version="1.0" encoding="utf-8"?>
<svg viewBox="0 0 164 92" width="164" height="92" xmlns="http://www.w3.org/2000/svg" xmlns:bx="https://boxy-svg.com">
  <path style="stroke: rgb(0, 0, 0); fill: rgb(123, 120, 111);" d="M 56.578 -33.168 C 42.883 -12.732 25.434 92.376 35.417 104.23 C 45.778 120.172 55.947 123.711 87.557 127.395 C 126.096 140.104 133.365 -8.046 128.41 -17.507 C 125.691 -31.594 71.904 -44.652 56.713 -33.346 C 51.327 -14.698 125.967 -3.735 128.27 -18.604" transform="matrix(0.187068, 0.982347, -0.982347, 0.187068, 110.417566, -42.896622)"/>
  <path style="stroke: rgb(0, 0, 0);" d="M 117.032 24.132 C 116.868 45.723 185.927 64.137 186.009 53.388 C 192.074 42.12 124.011 11.162 117.032 24.132 Z" transform="matrix(0.363412, 0.931629, -0.931629, 0.363412, 133.091463, -112.881357)" bx:origin="0.463 0.561"/>
</svg>