<?xml version="1.0" encoding="utf-8"?>
<svg viewBox="0 0 372 492" width="372" height="492" xmlns="http://www.w3.org/2000/svg">
  <circle style="stroke: rgb(0, 0, 0); fill: rgb(194, 130, 34);" transform="matrix(1.213968, 0, 0, 0.868877, -474.890876, 13.094406)" cx="542.6" cy="182.8" r="108.6"/>
  <path stroke-width="0" d="M 297.004 123.907 C 298.762 123.747 301.26 124.654 303.309 126.862 C 306.521 130.323 311.14 140.262 312.555 146.276 C 313.76 151.391 313.806 157.042 312.555 160.627 C 311.547 163.516 309.701 165.001 307.091 166.958 C 303.756 169.459 295.568 171.257 293.223 173.71 C 291.689 175.313 292.775 177.774 291.541 178.775 C 290.218 179.851 286.771 180.476 285.238 179.619 C 283.647 178.732 282.072 175.507 282.295 173.288 C 282.549 170.756 285.238 167.349 287.759 165.269 C 290.459 163.041 296.538 161.727 298.265 160.627 C 299.086 160.104 299.002 159.703 299.527 159.36 C 300.103 158.983 301.127 159.297 301.628 158.516 C 302.459 157.219 303.212 153.385 302.468 150.497 C 301.541 146.891 296.432 142.756 294.904 138.679 C 293.47 134.859 292.384 129.312 293.223 126.862 C 293.806 125.156 295.489 124.042 297.004 123.907 Z" style="stroke-width: 2px; fill: rgb(56, 30, 3);"/>
  <path stroke-width="0" d="M 273.128 122.556 C 274.978 122.002 278.475 122.549 281.114 125.51 C 285.957 130.947 295.383 155.689 295.404 161.807 C 295.412 164.604 293.971 165.921 292.462 166.452 C 290.754 167.049 287.14 166.189 285.317 164.34 C 283.047 162.037 282.607 154.041 281.114 152.1 C 280.3 151.045 279.529 152.102 278.593 150.834 C 276.348 147.8 270.01 131.816 270.186 127.198 C 270.283 124.683 271.577 123.021 273.128 122.556 Z" style="stroke-width: 2px; fill: rgb(56, 30, 3);"/>
  <ellipse style="stroke: rgb(255, 255, 255); fill: rgb(255, 255, 255);" cx="252.727" cy="179.813" rx="23.535" ry="22.622"/>
  <path stroke-width="0" d="M 225.047 120.192 C 226.771 119.691 230.842 120.638 232.192 122.303 C 233.614 124.053 231.634 127.707 233.033 130.744 C 234.92 134.84 242.667 139.904 244.801 144.25 C 246.506 147.726 246.944 151.785 246.482 154.379 C 246.122 156.401 244.325 158.017 243.54 159.022 C 243.041 159.665 242.616 159.73 242.279 160.288 C 241.885 160.945 241.36 161.914 241.439 162.821 C 241.528 163.863 243.1 165.027 243.12 166.197 C 243.143 167.415 242.5 169.209 241.439 169.996 C 240.249 170.88 237.547 171.24 235.975 170.84 C 234.491 170.463 232.999 169.474 232.192 167.885 C 231.142 165.815 230.977 161.322 231.352 158.6 C 231.682 156.2 233.089 153.919 233.873 152.269 C 234.466 151.02 235.689 150.519 235.555 149.315 C 235.369 147.633 232.286 144.329 230.931 142.984 C 230.005 142.062 229.043 142.014 228.409 141.296 C 227.794 140.599 227.779 139.396 227.149 138.763 C 226.518 138.13 225.332 138.603 224.628 137.497 C 223.303 135.416 221.539 126.939 222.105 123.991 C 222.478 122.053 223.604 120.611 225.047 120.192 Z" style="stroke-width: 2px; fill: rgb(56, 30, 3);"/>
  <path stroke-width="0" d="M 212.695 120.529 C 214.073 120.597 217.764 121.033 219 123.485 C 221.015 127.476 220.713 139.016 218.159 147.121 C 215.197 156.524 206.23 170.362 200.087 176.243 C 195.665 180.477 189.095 183.832 186.638 182.996 C 184.783 182.364 184.044 178.029 184.537 175.821 C 185.052 173.51 188.058 171.07 190.001 169.49 C 191.726 168.086 193.445 168.711 195.465 166.535 C 199.044 162.679 205.498 151.496 208.073 143.744 C 210.502 136.426 209.647 123.944 211.015 121.373 C 211.523 120.42 211.882 120.489 212.695 120.529 Z" style="stroke-width: 2px; fill: rgb(56, 30, 3);"/>
  <path stroke-width="0" d="M 96.272 123.231 C 97.65 123.299 101.994 124.304 102.576 126.185 C 103.31 128.558 99.111 135.737 97.533 137.581 C 96.662 138.6 95.511 137.598 95.012 138.847 C 93.916 141.597 98.045 152.381 96.694 159.107 C 95.245 166.314 89.367 177.675 85.766 180.633 C 83.651 182.369 80.99 182.394 79.462 181.477 C 77.809 180.485 76.18 177.115 76.52 174.302 C 76.973 170.55 83.404 165.542 84.925 160.796 C 86.384 156.238 85.997 150.621 85.766 146.446 C 85.571 142.915 83.167 140.417 84.084 137.159 C 85.241 133.056 92.612 125.834 94.591 124.075 C 95.416 123.341 95.458 123.19 96.272 123.231 Z" style="stroke-width: 2px; fill: rgb(56, 30, 3);"/>
  <path stroke-width="0" d="M 72.737 123.569 C 74.48 123.186 78.511 123.603 79.881 125.679 C 81.742 128.497 80.998 138.194 79.881 141.718 C 79.129 144.095 77.002 145.347 76.099 146.36 C 75.543 146.986 75.471 146.736 74.838 147.626 C 73.245 149.867 70.13 160.433 66.012 163.243 C 62.238 165.819 54.545 165.502 51.723 164.931 C 50.099 164.604 49.415 163.82 48.781 162.821 C 48.102 161.752 47.688 159.824 47.941 158.6 C 48.175 157.456 49.046 156.282 50.041 155.646 C 51.106 154.964 53.19 154.916 54.244 154.801 C 54.97 154.722 55.228 154.926 55.926 154.801 C 56.912 154.626 58.431 154.797 59.708 153.535 C 61.901 151.369 64.389 142.079 66.433 139.607 C 67.619 138.172 69.123 138.895 69.795 137.497 C 70.804 135.401 68.937 128.866 69.795 126.523 C 70.38 124.931 71.355 123.871 72.737 123.569 Z" style="stroke-width: 2px; fill: rgb(56, 3, 3);"/>
  <ellipse style="stroke: rgb(0, 0, 0); fill: rgb(255, 255, 255);" cx="126.811" cy="171.709" rx="25.722" ry="19.246"/>
  <path style="fill: none; stroke: rgb(250, 50, 50);" d="M 144.99 158.086 C 148.308 161.629 138.093 160.949 138.95 165.791 C 139.854 170.897 133.76 173.71 130.853 170.609"/>
  <path stroke-width="0" d="M 164.19 121.206 C 165.265 120.936 169.303 120.853 170.495 122.05 C 171.686 123.245 171.783 126.635 171.335 128.381 C 170.935 129.939 169.48 131.419 168.393 132.179 C 167.486 132.814 166.006 132.012 165.451 133.023 C 164.513 134.733 167.642 140.014 166.293 144.419 C 164.38 150.658 155.844 164.569 150.742 166.788 C 147.201 168.329 141.264 165.76 140.235 163.834 C 139.338 162.157 141.739 158.206 143.177 156.659 C 144.391 155.351 146.193 156.162 147.8 154.549 C 150.424 151.912 155.217 143.667 156.205 139.354 C 156.947 136.117 154.772 133.307 155.365 130.913 C 155.904 128.738 157.893 126.733 159.147 125.426 C 160.131 124.402 161.35 123.937 162.09 123.316 C 162.648 122.847 162.979 122.422 163.35 122.05 C 163.665 121.732 163.642 121.342 164.19 121.206 Z" style="stroke-width: 2px; fill: rgb(56, 30, 3);"/>
  <path style="stroke: rgb(0, 0, 0); fill: rgb(84, 80, 80);" d="M 161.527 3.761 C 145.867 -8.848 99.707 52.535 96.688 60.661 L 81.367 69.576 L 67.797 71.196 C 50.44 78.94 27.168 73.092 49.21 37.356 C -8.653 42.303 -17.118 134.82 40.548 130.399 C 249.671 114.37 339.998 133.399 339.998 133.399 C 375.864 136.893 392.229 50.811 322.256 44.386 C 325.629 41.684 337.518 70.917 319.622 79.274 L 298.201 80.882 L 279.229 73.904 C 282.814 65.006 259.573 13.383 213.995 3.491 C 208.872 2.378 198.992 8.009 186.275 8.638 C 178.935 8.999 171.095 5.443 161.527 3.761 Z"/>
  <path style="stroke: rgb(0, 0, 0); fill: rgb(180, 178, 178);" d="M 160.787 86.244 L 184.658 63.622 C 188.133 79.941 201.245 89.734 223.998 92.997 C 237.721 94.965 251.17 91.59 264.343 82.868 C 286.868 95.863 217.343 125.561 197.771 114.27 L 177.598 103.803 C 181.926 103.803 160.391 112.243 150.027 112.243 C 142.405 114.495 100.714 114.833 108.334 112.581 C 90.202 117.547 130.292 94.597 160.787 86.244 Z"/>
  <path style="fill: none; stroke: rgb(250, 50, 50);" d="M 128.934 152.224 C 135.479 156.057 132.291 170.981 128.059 168.64"/>
  <path style="fill: none; stroke: rgb(250, 50, 50);" d="M 144.155 185.851 C 145.28 185.645 143.46 179.359 138.442 180.282 C 132.755 179.694 128.493 173.659 129.768 173.791"/>
  <path style="fill: none; stroke: rgb(250, 50, 50);" d="M 101.757 168.365 C 108.372 173.532 123.311 167.715 124.184 170.329"/>
  <path style="fill: none; stroke: rgb(250, 50, 50);" d="M 106.35 182.662 C 106.798 172.073 129.553 174.77 125.097 173.498"/>
  <path style="fill: none; stroke: rgb(250, 50, 50);" d="M 114.467 187.935 C 116.349 188.923 122.597 186.15 123.444 182.884 C 124.493 178.834 129.017 176.786 126.265 175.34"/>
  <circle style="stroke: rgb(0, 0, 0);" transform="matrix(0.840569, 0, 0, 0.90235, -307.763615, -168.779391)" cx="518.6" cy="376.4" r="5.8"/>
  <path style="fill: none; stroke: rgb(250, 50, 50);" d="M 251.757 174.818 C 255.079 174.915 245.365 167.426 249.683 164.33 C 252.835 162.071 253.16 157.123 252.032 157.09"/>
  <path style="fill: none; stroke: rgb(250, 50, 50);" d="M 254.92 178.87 C 255.949 180.484 262.059 173.18 262.358 167.625 C 262.603 163.109 273.163 168.998 271.793 166.852"/>
  <path style="fill: none; stroke: rgb(250, 50, 50);" d="M 256.341 180.206 C 257.186 178.153 268.983 181.952 266.631 185.839 C 264.692 189.043 275.513 185.794 274.59 188.034"/>
  <path style="fill: none; stroke: rgb(250, 50, 50);" d="M 254.966 182.094 C 249.597 191.377 267.467 197.405 263.081 199.683"/>
  <path style="fill: none; stroke: rgb(250, 50, 50);" d="M 253.178 181.081 C 256.186 183.978 239.291 187.96 239.102 197.888"/>
  <path style="fill: none; stroke: rgb(250, 50, 50);" d="M 250.657 179.699 C 250.198 181.637 246.394 175.129 240.681 173.163 C 236.573 171.748 229.728 175.906 230.62 172.148"/>
  <ellipse style="fill: none; stroke: rgb(0, 0, 0);" cx="252.719" cy="179.77" rx="23.535" ry="22.622"/>
  <circle style="stroke: rgb(0, 0, 0);" transform="matrix(0.840569, 0, 0, 0.795901, -303.392644, -134.394381)" cx="662.6" cy="391.6" r="7"/>
  <ellipse style="stroke: rgb(0, 0, 0); fill: none;" cx="127.036" cy="171.665" rx="25.722" ry="19.246"/>
  <circle style="stroke-width: 3.6739px; stroke: rgb(205, 68, 68); fill: rgb(138, 52, 52);" transform="matrix(0.604305, 0, 0, 0.237844, -344.368657, 134.693483)" cx="872.6" cy="427.8" r="99"/>
  <path style="stroke: rgb(0, 0, 0); fill: rgb(229, 223, 199);" d="M 171.916 213.325 L 167.796 233.057 L 191.733 232.116 L 202.991 214.868 L 171.916 213.325 Z"/>
  <path style="fill: rgb(255, 215, 0); stroke: rgb(0, 0, 0);" d="M 215.16 216.506 L 215.037 237.082 L 241.36 240.699 C 243.073 242.59 244.115 233.077 239.5 227.978 C 240.96 227.122 217.617 215.066 215.16 216.506 Z"/>
  <path style="stroke: rgb(0, 0, 0); fill: rgb(248, 240, 240);" d="M 126.486 243.605 L 127.664 230.304 L 150.326 233.26 L 150.18 255.724 C 146.697 256.118 141.643 254.542 135.022 250.994 C 131.547 249.134 128.702 246.67 126.486 243.605 Z"/>
  <path style="fill: rgb(255, 215, 0); stroke: rgb(0, 0, 0);" d="M 155.478 235.625 L 155.036 257.054 L 173.578 259.124 L 176.818 236.955 L 155.478 235.625 Z"/>
  <path style="stroke: rgb(0, 0, 0); fill: rgb(211, 208, 171);" d="M 143.196 218.842 L 142.712 228.818 L 162.772 237.167 L 170.41 213.502 C 170.339 213.026 143.077 218.041 143.196 218.842 Z"/>
  <path style="fill: rgb(216, 216, 216); stroke: rgb(0, 0, 0);" d="M 176.081 243.31 L 204.336 243.161 L 203.897 258.385 L 174.021 259.419"/>
  <circle style="stroke: rgb(205, 68, 68); fill: none; stroke-width: 18.637px;" transform="matrix(0.602207, 0, 0, 0.227828, -343.045141, 138.374514)" cx="872.6" cy="427.8" r="99"/>
  <circle style="stroke: rgb(0, 0, 0); fill: rgb(194, 130, 34);" transform="matrix(0.486782, 0.176085, -0.256605, 0.709335, -39.824933, -25.259827)" cx="512.8" cy="399.2" r="33.6"/>
  <path style="stroke: rgb(0, 0, 0); fill: rgb(36, 32, 32);" d="M 137.665 394.492 C 116.053 394.449 110.348 445.398 119.609 446.467 L 152.85 447.337 C 174.174 444.225 198.486 389.061 189.584 390.36 L 137.665 394.492 Z"/>
  <path style="fill: rgb(129, 122, 122); stroke: rgb(0, 0, 0);" d="M 174.854 428.823 L 177.897 391.185"/>
  <path style="fill: rgb(129, 122, 122); stroke: rgb(0, 0, 0);" d="M 167.194 437.26 L 164.44 391.328"/>
  <path style="fill: rgb(129, 122, 122); stroke: rgb(0, 0, 0);" d="M 145.397 446.835 L 148.133 407.754 L 149.122 393.619"/>
  <circle style="stroke: rgb(0, 0, 0); fill: rgb(194, 130, 34);" transform="matrix(-0.486782, 0.176085, 0.256605, 0.709335, 425.865515, -17.582836)" cx="512.8" cy="399.2" r="33.6"/>
  <path style="stroke: rgb(0, 0, 0); fill: rgb(36, 32, 32);" d="M 242.67 395.349 C 259.658 412.697 238.047 443.189 223.497 445.301 L 198.46 445.177 C 182.975 443.401 174.83 393.968 187.147 390.442 C 188.334 388.674 244.331 392.875 242.67 395.349 Z"/>
  <path style="fill: rgb(216, 216, 216); stroke: rgb(0, 0, 0);" d="M 192.916 439.965 L 214.976 390.95"/>
  <path style="fill: rgb(216, 216, 216); stroke: rgb(0, 0, 0);" d="M 202.8 444.642 L 227.369 391.732"/>
  <path style="fill: rgb(216, 216, 216); stroke: rgb(0, 0, 0);" d="M 186.586 431.464 L 200.495 390.428"/>
  <path style="fill: rgb(216, 216, 216); stroke: rgb(0, 0, 0);" d="M 229.326 391.08 L 238.932 433.458" transform="matrix(-1, 0, 0, -1, 468.258003, 824.538037)"/>
  <path style="fill: rgb(216, 216, 216); stroke: rgb(0, 0, 0);" d="M 243.213 423.807 L 236.17 387.39"/>
  <path style="fill: rgb(216, 216, 216); stroke: rgb(0, 0, 0);" d="M 227.522 444.964 L 227.17 387.955"/>
  <path style="stroke: rgb(0, 0, 0); fill: rgb(240, 234, 214);" d="M 137.154 290.096 L 231.438 290.948 C 231.438 290.948 235.989 392.483 235.028 394.802 C 235.59 395.125 229.623 391.905 133.995 391.517 L 137.154 290.096 Z"/>
  <path style="stroke: rgb(0, 0, 0); fill: rgb(255, 255, 255);" d="M 120.644 245.169 C 115.478 247.967 179.936 270.263 188.116 265.832 C 193.134 269.31 249.7 245.83 250.608 244.533 C 261.579 244.925 254.6 276.941 250.53 276.796 C 250.53 282.249 183.675 293.202 183.675 291.895 C 177.815 291.508 111.622 282.762 112.42 281.645 C 109.548 281.645 117.338 245.169 120.644 245.169 Z"/>
  <path style="stroke: rgb(0, 0, 0); fill: rgb(98, 74, 46);" d="M 122.595 445.369 L 149.179 446.9 L 156.999 490.609 L 75.445 489.487 L 80.93 467.097 C 82.732 462.892 119.153 461.555 116.786 467.078 L 122.595 445.369 Z"/>
  <path style="fill: rgb(129, 122, 122); stroke: rgb(0, 0, 0);" d="M 116.281 440.444 L 130.51 397.988"/>
  <path style="fill: rgb(129, 122, 122); stroke: rgb(0, 0, 0);" d="M 123.092 442.759 L 137.812 395.05"/>
  <path style="fill: rgb(129, 122, 122); stroke: rgb(0, 0, 0);" d="M 135.062 443.926 L 143.824 394.191"/>
  <path style="stroke: rgb(0, 0, 0); fill: rgb(208, 32, 32);" d="M 146.664 276.704 C 145.647 274.057 123.925 287.729 114.365 294.875 C 107.734 295.749 93.245 341.457 94.631 341.274 C 113.621 338.292 114.956 346.566 118.176 350.291 C 122.93 351.32 139.544 321.391 138.33 318.747 C 134.046 324.489 130.417 390.563 132.469 393.574 C 132.302 400.176 164.894 399.411 171.054 397.397 C 185.158 394.082 181.017 313.93 179.689 314.281 C 163.649 304.796 152.641 292.271 146.664 276.704 Z"/>
  <path style="stroke: rgb(0, 0, 0); fill: rgb(98, 74, 46);" d="M 239.626 488.49 L 266.209 486.959 L 274.03 443.25 L 192.476 444.372 L 197.961 466.762 C 199.762 470.967 236.184 472.304 233.816 466.781 L 239.626 488.49 Z" transform="matrix(-1, 0, 0, -1, 466.506019, 931.739943)"/>
  <path style="stroke: rgb(0, 0, 0); fill: rgb(208, 32, 32);" d="M 237.748 397.449 C 223.323 400.513 210.587 388.243 209.038 385.513 C 203.801 380.553 180.436 339.511 185.814 338.905 C 184.529 338.611 191.118 319.969 204.027 323.473 C 212.056 325.158 231.714 355.181 228.713 356.938 C 228.221 357.121 213.479 288.147 222.362 284.839 C 218.569 287.027 257.003 285.301 264.187 281.155 C 264.841 280.868 289.436 354.266 273.548 361.241 C 267.004 381.7 255.071 393.769 237.748 397.449 Z" transform="matrix(-1, 0, 0, -1, 463.899055, 679.090769)"/>
  <path style="stroke: rgb(0, 0, 0); fill: rgb(255, 255, 255);" d="M 140.938 275.616 L 128.808 308.801 C 134.068 304.98 154.063 311.698 150.936 313.97 C 150.936 316.479 174.06 315.929 174.06 310.584 C 172.488 307.069 202.543 305.983 207.951 318.07 C 212.071 323.596 239.079 318.376 233.667 311.119 L 231.474 272.975"/>
  <circle style="stroke: rgb(0, 0, 0); fill: rgb(64, 40, 14);" transform="matrix(0.451031, 0, 0, 0.519353, -168.781069, 196.691012)" cx="717.6" cy="250.2" r="13.2"/>
  <circle style="stroke: rgb(0, 0, 0); fill: rgb(64, 40, 14);" transform="matrix(0.451031, 0, 0, 0.699852, -170.339572, 135.896746)" cx="716.4" cy="319" r="11.6"/>
  <circle style="stroke: rgb(0, 0, 0); fill: rgb(64, 40, 14);" transform="matrix(0.451031, 0, 0, 0.669478, -169.366183, 130.545458)" cx="713.2" cy="386.4" r="12.8"/>
  <circle style="stroke: rgb(0, 0, 0); fill: rgb(64, 40, 14);" transform="matrix(0.451031, 0, 0, 0.584104, -164.831484, 227.165744)" cx="876.6" cy="246.8" r="12.2"/>
  <circle style="stroke: rgb(0, 0, 0); fill: rgb(64, 40, 14);" transform="matrix(0.451031, 0, 0, 0.746509, -176.241351, 88.0394)" cx="889.6" cy="351.8" r="11.6"/>
  <circle style="stroke: rgb(0, 0, 0); fill: rgb(64, 40, 14);" transform="matrix(0.451031, 0, 0, 0.640918, -175.802493, 139.737932)" cx="879" cy="295.2" r="11.4"/>
  <path stroke-width="0" d="M 158.286 326.079 C 160.546 325.684 171.305 329.009 171.339 329.183 C 171.373 329.353 155.499 329.951 152.589 329.699 C 151.41 329.597 150.758 329.385 150.697 329.183 C 150.65 329.028 157.6 326.199 158.286 326.079 Z M 158.841 357.421 C 160.278 356.733 171.838 359.833 171.89 360.008 C 171.94 360.178 154.906 360.709 152.107 360.524 C 151.087 360.457 150.775 360.415 150.559 360.18 C 150.405 360.012 158.478 357.595 158.841 357.421 Z M 158.02 388.796 C 160.352 388.389 169.585 391.623 169.619 391.797 C 169.653 391.967 152.848 392.574 149.837 392.313 C 148.642 392.209 148.005 391.999 147.945 391.797 C 147.898 391.642 157.325 388.917 158.02 388.796 Z M 206.57 325.089 C 207.792 324.529 225.682 325.357 225.835 325.605 C 225.974 325.829 214.217 326.647 210.87 326.465 C 208.823 326.354 206.997 325.975 206.57 325.605 C 206.388 325.448 206.282 325.22 206.57 325.089 Z M 211.077 349.584 C 212.41 349.197 218.946 349.221 222.43 349.584 C 225.602 349.914 231.252 351.074 231.203 351.476 C 231.154 351.887 225.047 352.186 221.742 351.992 C 218.19 351.784 211.107 350.644 210.56 350.1 C 210.378 349.918 210.632 349.713 211.077 349.584 Z M 216.306 371.74 C 219.112 371.58 232.911 372.365 234.024 373.116 C 234.331 373.323 234.211 373.63 233.851 373.804 C 232.74 374.342 225.254 374.144 221.81 373.804 C 218.952 373.522 214.638 372.632 214.414 372.256 C 214.283 372.036 215.144 371.806 216.306 371.74 Z" style="stroke-width: 2px; fill: rgb(64, 40, 14);"/>
</svg>