<?xml version="1.0" encoding="UTF-8" standalone="no"?>
<svg
   viewBox="0 0 378 200"
   version="1.1"
   id="svg205"
   sodipodi:docname="Untitled (3).svg"
   width="378"
   height="200"
   inkscape:version="1.2.2 (732a01da63, 2022-12-09)"
   inkscape:export-filename="woodTexture"
   inkscape:export-xdpi="96"
   inkscape:export-ydpi="96"
   xmlns:inkscape="http://www.inkscape.org/namespaces/inkscape"
   xmlns:sodipodi="http://sodipodi.sourceforge.net/DTD/sodipodi-0.dtd"
   xmlns="http://www.w3.org/2000/svg"
   xmlns:svg="http://www.w3.org/2000/svg">
  <defs
     id="defs209">
    <inkscape:path-effect
       effect="mirror_symmetry"
       start_point="200,0"
       end_point="200,200"
       center_point="200,100"
       id="path-effect619"
       is_visible="true"
       lpeversion="1.2"
       lpesatellites=""
       mode="free"
       discard_orig_path="false"
       fuse_paths="false"
       oposite_fuse="false"
       split_items="false"
       split_open="false"
       link_styles="false" />
  </defs>
  <sodipodi:namedview
     id="namedview207"
     pagecolor="#ffffff"
     bordercolor="#000000"
     borderopacity="0.25"
     inkscape:showpageshadow="2"
     inkscape:pageopacity="0.0"
     inkscape:pagecheckerboard="0"
     inkscape:deskcolor="#d1d1d1"
     showgrid="false"
     inkscape:zoom="2.0425"
     inkscape:cx="203.91677"
     inkscape:cy="110.40392"
     inkscape:window-width="1920"
     inkscape:window-height="992"
     inkscape:window-x="-8"
     inkscape:window-y="-8"
     inkscape:window-maximized="1"
     inkscape:current-layer="g327" />
  <g
     id="g327"
     class="UnoptimicedTransforms"
     transform="matrix(0.94488838,0,0,1,2.5861625,0)">
    <g
       id="g617"
       inkscape:path-effect="#path-effect619"
       class="UnoptimicedTransforms"
       transform="translate(-2.6458151)">
      <path
         width="200"
         height="200"
         style="fill:#704d23"
         id="rect189"
         x="2.0649393e-06"
         y="0"
         class="UnoptimicedTransforms"
         d="M 2.0649393e-6,0 H 200 V 200 H 2.0649393e-6 Z M 400,0 H 200 v 200 h 200 z"
         sodipodi:type="rect" />
      <path
         stroke-width="0"
         d="m 23.22,16.42 c 12.125,0.424 34.28,9.408 45.569,8.642 7.966,-0.541 9.388,-5.562 18.07,-7.071 13.755,-2.39 42.868,-2.242 61.282,-0.786 16.23,1.284 34.669,8.802 43.998,7.857 5.567,-0.564 10.037,-5.99 10.999,-5.5 0.628,0.32 -0.073,2.773 -1.571,3.929 -2.669,2.058 -14.703,4.744 -17.285,4.714 -1.02,-0.012 -1.047,-0.786 -1.571,-0.786 -0.524,0 -0.513,0.842 -1.571,0.786 -2.942,-0.158 -11.651,-6.233 -21.214,-7.857 -13.873,-2.356 -44.104,-1.193 -57.353,-0.786 -8.36,0.257 -11.952,0.333 -18.071,1.572 C 78.061,22.437 73.008,27.159 64.86,27.419 54.056,27.764 35.576,19.16 24.006,18.777 14.691,18.468 1.937,23.888 0.04299995,22.705 c -0.859,-0.536 -0.189,-2.273 1.17800005,-3.143 C 4.133,17.709 14.186,16.104 23.22,16.42 Z M 2.085,42.19 c 3.807,-1.977 32.505,3.478 44.391,3.142 9.003,-0.254 12.157,-2.793 21.999,-3.142 14.774,-0.526 39.928,3.082 61.282,3.142 22.658,0.064 66.157,-5.733 71.103,-3.142 1.424,0.745 0.552,2.484 -0.393,3.142 -1.599,1.114 -7.078,-0.178 -11.785,0 -6.048,0.229 -18.511,1.86 -21.999,1.572 -1.456,-0.121 -1.669,-0.825 -2.357,-0.786 -0.598,0.034 -1.047,0.786 -1.571,0.786 -0.524,0 -0.263,-0.623 -1.571,-0.786 -4.913,-0.611 -31.802,2.603 -47.926,2.357 C 96.912,48.226 77.638,44.402 63.761,44.547 52.653,44.662 44.205,47.798 35.476,47.689 27.57,47.591 19.465,44.807 13.478,44.547 8.89,44.347 3.505,46.333 2.085,45.332 1.238,44.735 0.76699995,42.874 2.085,42.19 Z m 35.434,47.14 c 9.833,-1.337 18.103,-0.018 27.499,1.571 9.956,1.684 19.424,7.018 30.641,8.642 12.394,1.796 26.06,1.308 40.855,0.786 16.59,-0.585 42.172,-5.579 54.211,-4.714 7.363,0.529 14.294,2.894 15.32,4.321 0.473,0.658 -0.167,1.675 -1.178,1.964 -2.159,0.618 -9.395,-3.009 -14.928,-3.142 -6.34,-0.153 -16.409,3.008 -21.213,3.142 -2.95,0.083 -3.453,-0.763 -6.285,-0.785 -4.314,-0.034 -14.668,1.743 -18.071,1.571 -1.708,-0.086 -1.332,-0.681 -3.142,-0.786 -3.955,-0.227 -14.496,1.622 -22.785,1.572 -9.334,-0.057 -19.981,-0.552 -30.641,-2.357 -11.525,-1.952 -25.412,-8.494 -36.141,-9.428 -9.058,-0.789 -15.845,0.582 -24.356,2.357 -9.347,1.949 -28.20100005,9.647 -29.462,9.428 -0.57,-0.099 1.22899995,-1.322 3.535,-2.357 C 6.918,98.627 26.334,90.85 37.519,89.33 Z m 43.998,44.469 c 15.417,-1.669 53.772,7.989 76.21,8.642 19.024,0.554 47.176,-4.965 50.675,-3.143 1.031,0.537 0.355,1.859 -0.393,2.357 -1.294,0.863 -6.681,-0.48 -9.428,0 -2.397,0.42 -2.663,1.785 -6.285,2.357 -7.629,1.207 -26.989,1.76 -43.212,0.786 -19.191,-1.152 -50.069,-9.934 -65.21,-8.642 -9.879,0.842 -12.822,6.228 -21.213,7.856 -10.125,1.966 -24.921,1.921 -36.141,1.572 -10.249,-0.319 -26.11000005,-1.297 -28.677,-3.143 -0.943,-0.678 -0.583,-1.884 0,-2.357 0.884,-0.718 2.97699995,-0.159 6.678,0 7.82,0.336 32.415,3.38 43.212,3.143 7.504,-0.165 11.684,-0.804 17.285,-2.357 5.664,-1.572 7.874,-6.138 16.499,-7.071 z m -18.542,35.983 c 11.015,0.613 23.8,5.387 37.712,6.286 15.813,1.021 41.115,-1.932 52.64,-1.572 6.828,0.214 8.103,1.497 14.142,1.572 8.503,0.105 30.797,-3.83 33.391,-2.357 0.902,0.512 0.457,1.83 -0.393,2.357 -1.731,1.073 -8.341,-0.252 -14.142,0 -7.75,0.336 -19.706,2.254 -29.07,2.357 -8.94,0.098 -19.476,-1.583 -25.927,-1.572 -4.446,0.008 -6.592,0.765 -10.214,0.786 -3.934,0.022 -8.096,-0.877 -12.57,-0.786 -4.898,0.1 -9.421,1.89 -15.714,1.572 -8.172,-0.414 -17.982,-5.118 -29.855,-5.5 -15.003,-0.483 -43.856,5.902 -54.211,5.5 -5.277,-0.206 -9.34600005,-1.332 -9.821,-2.357 -0.316,-0.681 0.98799995,-1.958 2.75,-2.357 3.58,-0.812 14.801,2.903 21.213,2.357 5.771,-0.492 9.698,-3.661 15.713,-4.714 7.051,-1.236 15.151,-2.083 24.356,-1.572 z M 376.78,16.42 c -12.125,0.424 -34.28,9.408 -45.569,8.642 -7.966,-0.541 -9.388,-5.562 -18.07,-7.071 -13.755,-2.39 -42.868,-2.242 -61.282,-0.786 -16.23,1.284 -34.669,8.802 -43.998,7.857 -5.567,-0.564 -10.037,-5.99 -10.999,-5.5 -0.628,0.32 0.073,2.773 1.571,3.929 2.669,2.058 14.703,4.744 17.285,4.714 1.02,-0.012 1.047,-0.786 1.571,-0.786 0.524,0 0.513,0.842 1.571,0.786 2.942,-0.158 11.651,-6.233 21.214,-7.857 13.873,-2.356 44.104,-1.193 57.353,-0.786 8.36,0.257 11.952,0.333 18.071,1.572 6.441,1.303 11.494,6.025 19.642,6.285 10.804,0.345 29.284,-8.259 40.854,-8.642 9.315,-0.309 22.069,5.111 23.963,3.928 0.859,-0.536 0.189,-2.273 -1.178,-3.143 -2.912,-1.853 -12.965,-3.458 -21.999,-3.142 z m 21.135,25.77 c -3.807,-1.977 -32.505,3.478 -44.391,3.142 -9.003,-0.254 -12.157,-2.793 -21.999,-3.142 -14.774,-0.526 -39.928,3.082 -61.282,3.142 -22.658,0.064 -66.157,-5.733 -71.103,-3.142 -1.424,0.745 -0.552,2.484 0.393,3.142 1.599,1.114 7.078,-0.178 11.785,0 6.048,0.229 18.511,1.86 21.999,1.572 1.456,-0.121 1.669,-0.825 2.357,-0.786 0.598,0.034 1.047,0.786 1.571,0.786 0.524,0 0.263,-0.623 1.571,-0.786 4.913,-0.611 31.802,2.603 47.926,2.357 16.346,-0.249 35.62,-4.073 49.497,-3.928 11.108,0.115 19.556,3.251 28.285,3.142 7.906,-0.098 16.011,-2.882 21.998,-3.142 4.588,-0.2 9.973,1.786 11.393,0.785 0.847,-0.597 1.318,-2.458 0,-3.142 z m -35.434,47.14 c -9.833,-1.337 -18.103,-0.018 -27.499,1.571 -9.956,1.684 -19.424,7.018 -30.641,8.642 -12.394,1.796 -26.06,1.308 -40.855,0.786 -16.59,-0.585 -42.172,-5.579 -54.211,-4.714 -7.363,0.529 -14.294,2.894 -15.32,4.321 -0.473,0.658 0.167,1.675 1.178,1.964 2.159,0.618 9.395,-3.009 14.928,-3.142 6.34,-0.153 16.409,3.008 21.213,3.142 2.95,0.083 3.453,-0.763 6.285,-0.785 4.314,-0.034 14.668,1.743 18.071,1.571 1.708,-0.086 1.332,-0.681 3.142,-0.786 3.955,-0.227 14.496,1.622 22.785,1.572 9.334,-0.057 19.981,-0.552 30.641,-2.357 11.525,-1.952 25.412,-8.494 36.141,-9.428 9.058,-0.789 15.845,0.582 24.356,2.357 9.347,1.949 28.201,9.647 29.462,9.428 0.57,-0.099 -1.229,-1.322 -3.535,-2.357 -5.54,-2.488 -24.956,-10.265 -36.141,-11.785 z m -43.998,44.469 c -15.417,-1.669 -53.772,7.989 -76.21,8.642 -19.024,0.554 -47.176,-4.965 -50.675,-3.143 -1.031,0.537 -0.355,1.859 0.393,2.357 1.294,0.863 6.681,-0.48 9.428,0 2.397,0.42 2.663,1.785 6.285,2.357 7.629,1.207 26.989,1.76 43.212,0.786 19.191,-1.152 50.069,-9.934 65.21,-8.642 9.879,0.842 12.822,6.228 21.213,7.856 10.125,1.966 24.921,1.921 36.141,1.572 10.249,-0.319 26.11,-1.297 28.677,-3.143 0.943,-0.678 0.583,-1.884 0,-2.357 -0.884,-0.718 -2.977,-0.159 -6.678,0 -7.82,0.336 -32.415,3.38 -43.212,3.143 -7.504,-0.165 -11.684,-0.804 -17.285,-2.357 -5.664,-1.572 -7.874,-6.138 -16.499,-7.071 z m 18.542,35.983 c -11.015,0.613 -23.8,5.387 -37.712,6.286 -15.813,1.021 -41.115,-1.932 -52.64,-1.572 -6.828,0.214 -8.103,1.497 -14.142,1.572 -8.503,0.105 -30.797,-3.83 -33.391,-2.357 -0.902,0.512 -0.457,1.83 0.393,2.357 1.731,1.073 8.341,-0.252 14.142,0 7.75,0.336 19.706,2.254 29.07,2.357 8.94,0.098 19.476,-1.583 25.927,-1.572 4.446,0.008 6.592,0.765 10.214,0.786 3.934,0.022 8.096,-0.877 12.57,-0.786 4.898,0.1 9.421,1.89 15.714,1.572 8.172,-0.414 17.982,-5.118 29.855,-5.5 15.003,-0.483 43.856,5.902 54.211,5.5 5.277,-0.206 9.346,-1.332 9.821,-2.357 0.316,-0.681 -0.988,-1.958 -2.75,-2.357 -3.58,-0.812 -14.801,2.903 -21.213,2.357 -5.771,-0.492 -9.698,-3.661 -15.713,-4.714 -7.051,-1.236 -15.151,-2.083 -24.356,-1.572 z"
         style="fill:#4c2e13;stroke-width:2px"
         id="path191"
         inkscape:original-d="m 23.22,16.42 c 12.125,0.424 34.28,9.408 45.569,8.642 7.966,-0.541 9.388,-5.562 18.07,-7.071 13.755,-2.39 42.868,-2.242 61.282,-0.786 16.23,1.284 34.669,8.802 43.998,7.857 5.567,-0.564 10.037,-5.99 10.999,-5.5 0.628,0.32 -0.073,2.773 -1.571,3.929 -2.669,2.058 -14.703,4.744 -17.285,4.714 -1.02,-0.012 -1.047,-0.786 -1.571,-0.786 -0.524,0 -0.513,0.842 -1.571,0.786 -2.942,-0.158 -11.651,-6.233 -21.214,-7.857 -13.873,-2.356 -44.104,-1.193 -57.353,-0.786 -8.36,0.257 -11.952,0.333 -18.071,1.572 C 78.061,22.437 73.008,27.159 64.86,27.419 54.056,27.764 35.576,19.16 24.006,18.777 14.691,18.468 1.937,23.888 0.04299995,22.705 c -0.859,-0.536 -0.189,-2.273 1.17800005,-3.143 C 4.133,17.709 14.186,16.104 23.22,16.42 Z M 2.085,42.19 c 3.807,-1.977 32.505,3.478 44.391,3.142 9.003,-0.254 12.157,-2.793 21.999,-3.142 14.774,-0.526 39.928,3.082 61.282,3.142 22.658,0.064 66.157,-5.733 71.103,-3.142 1.424,0.745 0.552,2.484 -0.393,3.142 -1.599,1.114 -7.078,-0.178 -11.785,0 -6.048,0.229 -18.511,1.86 -21.999,1.572 -1.456,-0.121 -1.669,-0.825 -2.357,-0.786 -0.598,0.034 -1.047,0.786 -1.571,0.786 -0.524,0 -0.263,-0.623 -1.571,-0.786 -4.913,-0.611 -31.802,2.603 -47.926,2.357 C 96.912,48.226 77.638,44.402 63.761,44.547 52.653,44.662 44.205,47.798 35.476,47.689 27.57,47.591 19.465,44.807 13.478,44.547 8.89,44.347 3.505,46.333 2.085,45.332 1.238,44.735 0.76699995,42.874 2.085,42.19 Z m 35.434,47.14 c 9.833,-1.337 18.103,-0.018 27.499,1.571 9.956,1.684 19.424,7.018 30.641,8.642 12.394,1.796 26.06,1.308 40.855,0.786 16.59,-0.585 42.172,-5.579 54.211,-4.714 7.363,0.529 14.294,2.894 15.32,4.321 0.473,0.658 -0.167,1.675 -1.178,1.964 -2.159,0.618 -9.395,-3.009 -14.928,-3.142 -6.34,-0.153 -16.409,3.008 -21.213,3.142 -2.95,0.083 -3.453,-0.763 -6.285,-0.785 -4.314,-0.034 -14.668,1.743 -18.071,1.571 -1.708,-0.086 -1.332,-0.681 -3.142,-0.786 -3.955,-0.227 -14.496,1.622 -22.785,1.572 -9.334,-0.057 -19.981,-0.552 -30.641,-2.357 -11.525,-1.952 -25.412,-8.494 -36.141,-9.428 -9.058,-0.789 -15.845,0.582 -24.356,2.357 -9.347,1.949 -28.20100005,9.647 -29.462,9.428 -0.57,-0.099 1.22899995,-1.322 3.535,-2.357 C 6.918,98.627 26.334,90.85 37.519,89.33 Z m 43.998,44.469 c 15.417,-1.669 53.772,7.989 76.21,8.642 19.024,0.554 47.176,-4.965 50.675,-3.143 1.031,0.537 0.355,1.859 -0.393,2.357 -1.294,0.863 -6.681,-0.48 -9.428,0 -2.397,0.42 -2.663,1.785 -6.285,2.357 -7.629,1.207 -26.989,1.76 -43.212,0.786 -19.191,-1.152 -50.069,-9.934 -65.21,-8.642 -9.879,0.842 -12.822,6.228 -21.213,7.856 -10.125,1.966 -24.921,1.921 -36.141,1.572 -10.249,-0.319 -26.11000005,-1.297 -28.677,-3.143 -0.943,-0.678 -0.583,-1.884 0,-2.357 0.884,-0.718 2.97699995,-0.159 6.678,0 7.82,0.336 32.415,3.38 43.212,3.143 7.504,-0.165 11.684,-0.804 17.285,-2.357 5.664,-1.572 7.874,-6.138 16.499,-7.071 z m -18.542,35.983 c 11.015,0.613 23.8,5.387 37.712,6.286 15.813,1.021 41.115,-1.932 52.64,-1.572 6.828,0.214 8.103,1.497 14.142,1.572 8.503,0.105 30.797,-3.83 33.391,-2.357 0.902,0.512 0.457,1.83 -0.393,2.357 -1.731,1.073 -8.341,-0.252 -14.142,0 -7.75,0.336 -19.706,2.254 -29.07,2.357 -8.94,0.098 -19.476,-1.583 -25.927,-1.572 -4.446,0.008 -6.592,0.765 -10.214,0.786 -3.934,0.022 -8.096,-0.877 -12.57,-0.786 -4.898,0.1 -9.421,1.89 -15.714,1.572 -8.172,-0.414 -17.982,-5.118 -29.855,-5.5 -15.003,-0.483 -43.856,5.902 -54.211,5.5 -5.277,-0.206 -9.34600005,-1.332 -9.821,-2.357 -0.316,-0.681 0.98799995,-1.958 2.75,-2.357 3.58,-0.812 14.801,2.903 21.213,2.357 5.771,-0.492 9.698,-3.661 15.713,-4.714 7.051,-1.236 15.151,-2.083 24.356,-1.572 z" />
      <path
         stroke-width="0"
         d="m 164.542,59.772 c 0.591,0.126 0.794,0.695 0.392,1.178 -1.193,1.434 -11.627,3.442 -17.677,6.678 -6.868,3.674 -13.586,12.488 -21.213,14.928 -7.341,2.349 -17.621,1.914 -23.57,0 -4.752,-1.529 -8.468,-6.143 -10.607,-8.25 -1.308,-1.288 -1.683,-2.12 -2.357,-3.142 -0.618,-0.938 -0.881,-2.089 -1.571,-2.75 -0.642,-0.614 -2.258,-0.743 -2.357,-1.179 -0.083,-0.363 0.657,-1.166 1.178,-1.178 0.691,-0.016 2.038,1.085 2.75,1.964 0.752,0.928 0.774,2.615 1.571,3.536 0.784,0.904 2.283,1.158 3.143,1.964 0.829,0.776 1.212,2.016 1.964,2.75 0.701,0.683 1.397,0.931 2.357,1.571 1.268,0.845 2.288,2.436 4.714,3.143 3.86,1.124 11.55,2.603 18.071,0.785 8.13,-2.266 18.892,-12.775 26.712,-16.499 6.175,-2.94 14.801,-5.864 16.5,-5.499 z m 70.916,0 c -0.591,0.126 -0.794,0.695 -0.392,1.178 1.193,1.434 11.627,3.442 17.677,6.678 6.868,3.674 13.586,12.488 21.213,14.928 7.341,2.349 17.621,1.914 23.57,0 4.752,-1.529 8.468,-6.143 10.607,-8.25 1.308,-1.288 1.683,-2.12 2.357,-3.142 0.618,-0.938 0.881,-2.089 1.571,-2.75 0.642,-0.614 2.258,-0.743 2.357,-1.179 0.083,-0.363 -0.657,-1.166 -1.178,-1.178 -0.691,-0.016 -2.038,1.085 -2.75,1.964 -0.752,0.928 -0.774,2.615 -1.571,3.536 -0.784,0.904 -2.283,1.158 -3.143,1.964 -0.829,0.776 -1.212,2.016 -1.964,2.75 -0.701,0.683 -1.397,0.931 -2.357,1.571 -1.268,0.845 -2.288,2.436 -4.714,3.143 -3.86,1.124 -11.55,2.603 -18.071,0.785 -8.13,-2.266 -18.892,-12.775 -26.712,-16.499 -6.175,-2.94 -14.801,-5.864 -16.5,-5.499 z"
         style="fill:#5a3515;stroke-width:2px"
         id="path193"
         inkscape:original-d="m 164.542,59.772 c 0.591,0.126 0.794,0.695 0.392,1.178 -1.193,1.434 -11.627,3.442 -17.677,6.678 -6.868,3.674 -13.586,12.488 -21.213,14.928 -7.341,2.349 -17.621,1.914 -23.57,0 -4.752,-1.529 -8.468,-6.143 -10.607,-8.25 -1.308,-1.288 -1.683,-2.12 -2.357,-3.142 -0.618,-0.938 -0.881,-2.089 -1.571,-2.75 -0.642,-0.614 -2.258,-0.743 -2.357,-1.179 -0.083,-0.363 0.657,-1.166 1.178,-1.178 0.691,-0.016 2.038,1.085 2.75,1.964 0.752,0.928 0.774,2.615 1.571,3.536 0.784,0.904 2.283,1.158 3.143,1.964 0.829,0.776 1.212,2.016 1.964,2.75 0.701,0.683 1.397,0.931 2.357,1.571 1.268,0.845 2.288,2.436 4.714,3.143 3.86,1.124 11.55,2.603 18.071,0.785 8.13,-2.266 18.892,-12.775 26.712,-16.499 6.175,-2.94 14.801,-5.864 16.5,-5.499 z" />
      <path
         stroke-width="0"
         d="m 87.388,153.026 c 4.345,-0.366 36.288,10.735 45.569,11.785 4.964,0.562 8.932,-1.426 9.82,-0.786 0.432,0.311 0.251,1.211 -0.392,1.572 -1.423,0.798 -6.142,0.81 -11.785,0 -9.715,-1.395 -42.454,-9.427 -44.391,-11.392 -0.514,-0.523 0.037,-1.083 1.179,-1.179 z m -34.57,-47.611 c 0.764,-0.043 1.422,0.593 1.179,1.178 -0.579,1.395 -10.779,5.347 -12.571,7.464 -0.98,1.159 -0.128,2.217 -0.786,3.143 -0.768,1.083 -2.553,1.265 -3.928,2.749 -1.962,2.118 -4.35,8.044 -6.285,9.821 -1.245,1.143 -3.349,1.842 -3.536,1.572 -0.198,-0.287 1.553,-1.91 2.75,-3.536 1.832,-2.488 5.761,-8.904 7.464,-10.606 0.851,-0.851 1.289,-0.566 1.964,-1.179 0.882,-0.802 1.253,-2.216 2.75,-3.535 2.298,-2.026 9.259,-6.975 10.999,-7.071 z m 79.981,5.185 c 1.128,0.419 1.345,1.619 0.393,2.357 -2.95,2.289 -38.257,6.242 -40.069,5.5 -0.596,-0.245 0.408,-1.002 1.964,-1.572 4.622,-1.691 34.296,-7.556 37.712,-6.285 z m 49.498,-3.614 c 0.825,0.061 1.478,0.914 1.178,1.571 -0.627,1.378 -8.019,3.328 -10.999,5.893 -2.858,2.459 -5.066,8.203 -6.678,9.035 -0.809,0.418 -1.913,0.228 -1.965,-0.393 -0.108,-1.32 4.697,-7.901 7.857,-10.606 3.036,-2.6 8.906,-5.627 10.607,-5.5 z m 130.315,46.04 c -4.345,-0.366 -36.288,10.735 -45.569,11.785 -4.964,0.562 -8.932,-1.426 -9.82,-0.786 -0.432,0.311 -0.251,1.211 0.392,1.572 1.423,0.798 6.142,0.81 11.785,0 9.715,-1.395 42.454,-9.427 44.391,-11.392 0.514,-0.523 -0.037,-1.083 -1.179,-1.179 z m 34.57,-47.611 c -0.764,-0.043 -1.422,0.593 -1.179,1.178 0.579,1.395 10.779,5.347 12.571,7.464 0.98,1.159 0.128,2.217 0.786,3.143 0.768,1.083 2.553,1.265 3.928,2.749 1.962,2.118 4.35,8.044 6.285,9.821 1.245,1.143 3.349,1.842 3.536,1.572 0.198,-0.287 -1.553,-1.91 -2.75,-3.536 -1.832,-2.488 -5.761,-8.904 -7.464,-10.606 -0.851,-0.851 -1.289,-0.566 -1.964,-1.179 -0.882,-0.802 -1.253,-2.216 -2.75,-3.535 -2.298,-2.026 -9.259,-6.975 -10.999,-7.071 z m -79.981,5.185 c -1.128,0.419 -1.345,1.619 -0.393,2.357 2.95,2.289 38.257,6.242 40.069,5.5 0.596,-0.245 -0.408,-1.002 -1.964,-1.572 -4.622,-1.691 -34.296,-7.556 -37.712,-6.285 z m -49.498,-3.614 c -0.825,0.061 -1.478,0.914 -1.178,1.571 0.627,1.378 8.019,3.328 10.999,5.893 2.858,2.459 5.066,8.203 6.678,9.035 0.809,0.418 1.913,0.228 1.965,-0.393 0.108,-1.32 -4.697,-7.901 -7.857,-10.606 -3.036,-2.6 -8.906,-5.627 -10.607,-5.5 z"
         style="fill:#3e230c;stroke-width:2px"
         id="path195"
         inkscape:original-d="m 87.388,153.026 c 4.345,-0.366 36.288,10.735 45.569,11.785 4.964,0.562 8.932,-1.426 9.82,-0.786 0.432,0.311 0.251,1.211 -0.392,1.572 -1.423,0.798 -6.142,0.81 -11.785,0 -9.715,-1.395 -42.454,-9.427 -44.391,-11.392 -0.514,-0.523 0.037,-1.083 1.179,-1.179 z m -34.57,-47.611 c 0.764,-0.043 1.422,0.593 1.179,1.178 -0.579,1.395 -10.779,5.347 -12.571,7.464 -0.98,1.159 -0.128,2.217 -0.786,3.143 -0.768,1.083 -2.553,1.265 -3.928,2.749 -1.962,2.118 -4.35,8.044 -6.285,9.821 -1.245,1.143 -3.349,1.842 -3.536,1.572 -0.198,-0.287 1.553,-1.91 2.75,-3.536 1.832,-2.488 5.761,-8.904 7.464,-10.606 0.851,-0.851 1.289,-0.566 1.964,-1.179 0.882,-0.802 1.253,-2.216 2.75,-3.535 2.298,-2.026 9.259,-6.975 10.999,-7.071 z m 79.981,5.185 c 1.128,0.419 1.345,1.619 0.393,2.357 -2.95,2.289 -38.257,6.242 -40.069,5.5 -0.596,-0.245 0.408,-1.002 1.964,-1.572 4.622,-1.691 34.296,-7.556 37.712,-6.285 z m 49.498,-3.614 c 0.825,0.061 1.478,0.914 1.178,1.571 -0.627,1.378 -8.019,3.328 -10.999,5.893 -2.858,2.459 -5.066,8.203 -6.678,9.035 -0.809,0.418 -1.913,0.228 -1.965,-0.393 -0.108,-1.32 4.697,-7.901 7.857,-10.606 3.036,-2.6 8.906,-5.627 10.607,-5.5 z" />
      <path
         stroke-width="0"
         d="m 177.559,148.108 c 3.011,-0.117 7.799,0.892 9.475,2.884 1.559,1.853 1.668,5.435 0.824,8.239 -1.01,3.351 -4.306,8.03 -7.827,10.299 -3.675,2.366 -10.813,3.887 -14.007,3.295 -2.229,-0.413 -3.639,-2.126 -4.531,-3.707 -0.891,-1.579 -1.473,-3.509 -0.824,-5.768 0.941,-3.275 5.502,-9.416 8.651,-11.946 2.569,-2.066 5.357,-3.185 8.239,-3.296 z m 44.882,0 c -3.011,-0.117 -7.799,0.892 -9.475,2.884 -1.559,1.853 -1.668,5.435 -0.824,8.239 1.01,3.351 4.306,8.03 7.827,10.299 3.675,2.366 10.813,3.887 14.007,3.295 2.229,-0.413 3.639,-2.126 4.531,-3.707 0.891,-1.579 1.473,-3.509 0.824,-5.768 -0.941,-3.275 -5.502,-9.416 -8.651,-11.946 -2.569,-2.066 -5.357,-3.185 -8.239,-3.296 z"
         style="fill:#4e2d10;stroke:#643c19;stroke-width:2px"
         id="path197"
         inkscape:original-d="m 177.559,148.108 c 3.011,-0.117 7.799,0.892 9.475,2.884 1.559,1.853 1.668,5.435 0.824,8.239 -1.01,3.351 -4.306,8.03 -7.827,10.299 -3.675,2.366 -10.813,3.887 -14.007,3.295 -2.229,-0.413 -3.639,-2.126 -4.531,-3.707 -0.891,-1.579 -1.473,-3.509 -0.824,-5.768 0.941,-3.275 5.502,-9.416 8.651,-11.946 2.569,-2.066 5.357,-3.185 8.239,-3.296 z" />
      <path
         stroke-width="0"
         d="m 29.585,57.149 c 3.581,-0.266 11.454,1.476 13.595,3.707 1.584,1.652 1.507,4.143 0.824,6.592 -0.91,3.261 -4.342,8.583 -7.828,11.122 -3.506,2.556 -9.609,4.366 -13.182,4.12 -2.861,-0.198 -5.692,-1.747 -7.003,-3.708 -1.335,-1.995 -1.669,-5.435 -0.824,-8.239 1.01,-3.351 5.139,-8.01 7.827,-10.299 2.147,-1.827 3.828,-3.091 6.591,-3.295 z m 340.83,0 c -3.581,-0.266 -11.454,1.476 -13.595,3.707 -1.584,1.652 -1.507,4.143 -0.824,6.592 0.91,3.261 4.342,8.583 7.828,11.122 3.506,2.556 9.609,4.366 13.182,4.12 2.861,-0.198 5.692,-1.747 7.003,-3.708 1.335,-1.995 1.669,-5.435 0.824,-8.239 -1.01,-3.351 -5.139,-8.01 -7.827,-10.299 -2.147,-1.827 -3.828,-3.091 -6.591,-3.295 z"
         style="fill:#43250c;stroke:#643c19;stroke-width:2px"
         id="path199"
         inkscape:original-d="m 29.585,57.149 c 3.581,-0.266 11.454,1.476 13.595,3.707 1.584,1.652 1.507,4.143 0.824,6.592 -0.91,3.261 -4.342,8.583 -7.828,11.122 -3.506,2.556 -9.609,4.366 -13.182,4.12 -2.861,-0.198 -5.692,-1.747 -7.003,-3.708 -1.335,-1.995 -1.669,-5.435 -0.824,-8.239 1.01,-3.351 5.139,-8.01 7.827,-10.299 2.147,-1.827 3.828,-3.091 6.591,-3.295 z" />
      <path
         stroke-width="0"
         d="m 135.021,29.441 c 4.179,0.195 13.635,2.235 14.418,3.708 0.467,0.877 -1.478,2.669 -2.883,2.884 -1.919,0.292 -6.362,-3.157 -8.239,-3.296 -1.15,-0.085 -0.894,0.596 -2.472,0.824 -3.983,0.574 -23.153,2.042 -26.365,0.824 -1.232,-0.467 -1.748,-1.49 -1.236,-2.06 1.1,-1.223 13.561,-2.319 16.066,-2.06 1.05,0.109 0.741,0.743 1.648,0.824 1.726,0.154 5.615,-1.808 9.063,-1.648 z m 129.958,0 c -4.179,0.195 -13.635,2.235 -14.418,3.708 -0.467,0.877 1.478,2.669 2.883,2.884 1.919,0.292 6.362,-3.157 8.239,-3.296 1.15,-0.085 0.894,0.596 2.472,0.824 3.983,0.574 23.153,2.042 26.365,0.824 1.232,-0.467 1.748,-1.49 1.236,-2.06 -1.1,-1.223 -13.561,-2.319 -16.066,-2.06 -1.05,0.109 -0.741,0.743 -1.648,0.824 -1.726,0.154 -5.615,-1.808 -9.063,-1.648 z"
         style="fill:#4f2b0c;stroke-width:2px"
         id="path201"
         inkscape:original-d="m 135.021,29.441 c 4.179,0.195 13.635,2.235 14.418,3.708 0.467,0.877 -1.478,2.669 -2.883,2.884 -1.919,0.292 -6.362,-3.157 -8.239,-3.296 -1.15,-0.085 -0.894,0.596 -2.472,0.824 -3.983,0.574 -23.153,2.042 -26.365,0.824 -1.232,-0.467 -1.748,-1.49 -1.236,-2.06 1.1,-1.223 13.561,-2.319 16.066,-2.06 1.05,0.109 0.741,0.743 1.648,0.824 1.726,0.154 5.615,-1.808 9.063,-1.648 z" />
      <path
         stroke-width="0"
         d="m 58.365,182.554 c 2.153,0.543 5.055,2.933 4.5,4 -0.837,1.606 -14.403,4.292 -16.5,3 -1.293,-0.797 -1.155,-3.828 0,-5 1.648,-1.674 9.147,-2.72 12,-2 z m 32.4,1.283 c 1.635,0.115 4.009,2.675 3.5,4 -0.776,2.019 -12.767,6.634 -14,6 -0.742,-0.38 0.359,-2.647 1.5,-4 1.653,-1.96 6.827,-6.152 9,-6 z m 63.6,0.717 c 1.955,0.348 5.079,2.936 4.5,4 -0.894,1.639 -15.414,3.925 -17.5,3 -0.96,-0.426 -0.92,-1.861 -0.5,-2.5 0.537,-0.82 2.666,-0.889 4.5,-1.5 2.419,-0.807 6.654,-3.418 9,-3 z m 187.27,-2 c -2.153,0.543 -5.055,2.933 -4.5,4 0.837,1.606 14.403,4.292 16.5,3 1.293,-0.797 1.155,-3.828 0,-5 -1.648,-1.674 -9.147,-2.72 -12,-2 z m -32.4,1.283 c -1.635,0.115 -4.009,2.675 -3.5,4 0.776,2.019 12.767,6.634 14,6 0.742,-0.38 -0.359,-2.647 -1.5,-4 -1.653,-1.96 -6.827,-6.152 -9,-6 z m -63.6,0.717 c -1.955,0.348 -5.079,2.936 -4.5,4 0.894,1.639 15.414,3.925 17.5,3 0.96,-0.426 0.92,-1.861 0.5,-2.5 -0.537,-0.82 -2.666,-0.889 -4.5,-1.5 -2.419,-0.807 -6.654,-3.418 -9,-3 z"
         style="fill:#4e2c0e;stroke-width:2px"
         id="path203"
         inkscape:original-d="m 58.365,182.554 c 2.153,0.543 5.055,2.933 4.5,4 -0.837,1.606 -14.403,4.292 -16.5,3 -1.293,-0.797 -1.155,-3.828 0,-5 1.648,-1.674 9.147,-2.72 12,-2 z m 32.4,1.283 c 1.635,0.115 4.009,2.675 3.5,4 -0.776,2.019 -12.767,6.634 -14,6 -0.742,-0.38 0.359,-2.647 1.5,-4 1.653,-1.96 6.827,-6.152 9,-6 z m 63.6,0.717 c 1.955,0.348 5.079,2.936 4.5,4 -0.894,1.639 -15.414,3.925 -17.5,3 -0.96,-0.426 -0.92,-1.861 -0.5,-2.5 0.537,-0.82 2.666,-0.889 4.5,-1.5 2.419,-0.807 6.654,-3.418 9,-3 z" />
    </g>
    <ellipse
       style="fill:#704d23;fill-opacity:1;stroke-width:1.02875"
       id="path1144"
       cx="199.32654"
       cy="17.82913"
       rx="9.3429203"
       ry="5.3660488" />
    <ellipse
       style="fill:#704d23;fill-opacity:1;stroke-width:1.02875"
       id="path1146"
       cx="201.52487"
       cy="100.74324"
       rx="8.976531"
       ry="2.423377" />
    <ellipse
       style="fill:#704d23;fill-opacity:1;stroke-width:1.02875"
       id="path1148"
       cx="200.97528"
       cy="137.44009"
       rx="9.8925028"
       ry="3.1157703" />
    <ellipse
       style="fill:#704d23;fill-opacity:1;stroke-width:1.02875"
       id="path1150"
       cx="200.05931"
       cy="138.47868"
       rx="11.174866"
       ry="2.7695737" />
    <ellipse
       style="fill:#000000;fill-opacity:0;stroke-width:1.02875"
       id="path1152"
       cx="200.97528"
       cy="176.90652"
       rx="1.8319451"
       ry="5.5391474" />
    <ellipse
       style="fill:#4c2e13;fill-opacity:1;stroke-width:1.02875"
       id="path1987"
       cx="199.50974"
       cy="23.714474"
       rx="4.7630572"
       ry="1.5578852" />
    <ellipse
       style="fill:#4c2e13;fill-opacity:1;stroke-width:1.02875"
       id="path1989"
       cx="199.69293"
       cy="43.447689"
       rx="2.0151396"
       ry="2.5964754" />
    <ellipse
       style="fill:#4c2e13;fill-opacity:1;stroke-width:1.02875"
       id="path1991"
       cx="199.50974"
       cy="98.319862"
       rx="4.396668"
       ry="2.0771801" />
    <ellipse
       style="fill:#4c2e13;fill-opacity:1;stroke-width:1.02875"
       id="path1993"
       cx="199.87611"
       cy="141.24826"
       rx="11.358059"
       ry="3.8081639" />
    <ellipse
       style="fill:#4c2e13;fill-opacity:1;stroke-width:1.02875"
       id="path1995"
       cx="199.87611"
       cy="174.65623"
       rx="1.465556"
       ry="2.2502787" />
    <ellipse
       style="fill:#4c2e13;fill-opacity:1;stroke-width:1.02875"
       id="path1997"
       cx="164.51959"
       cy="45.871063"
       rx="4.5798626"
       ry="0.86549175" />
    <ellipse
       style="fill:#4c2e13;fill-opacity:1;stroke-width:1.02875"
       id="path1999"
       cx="235.59904"
       cy="46.563457"
       rx="5.3126407"
       ry="1.2116885" />
    <ellipse
       style="fill:#4c2e13;fill-opacity:1;stroke-width:1.02875"
       id="path2003"
       cx="183.02222"
       cy="27.695736"
       rx="2.9311121"
       ry="0.69239342" />
    <ellipse
       style="fill:#4c2e13;fill-opacity:1;stroke-width:1.02875"
       id="path2005"
       cx="217.09641"
       cy="27.695736"
       rx="1.8319451"
       ry="0.34619671" />
    <ellipse
       style="fill:#704d23;fill-opacity:1;stroke-width:1.02875"
       id="path2007"
       cx="199.87611"
       cy="170.67497"
       rx="5.4958353"
       ry="3.1157703" />
    <ellipse
       style="fill:#704d23;fill-opacity:1;stroke-width:1.02875"
       id="path2009"
       cx="200.05931"
       cy="178.11821"
       rx="6.7781968"
       ry="2.2502787" />
    <ellipse
       style="fill:#704d23;fill-opacity:1;stroke-width:1.02875"
       id="path2011"
       cx="197.3114"
       cy="38.600933"
       rx="9.5261145"
       ry="3.6350656" />
    <ellipse
       style="fill:#704d23;fill-opacity:1;stroke-width:1.02875"
       id="path2013"
       cx="200.05931"
       cy="49.159931"
       rx="7.5109749"
       ry="4.8467541" />
    <ellipse
       style="fill:#704d23;fill-opacity:1;stroke-width:1.02875"
       id="path2015"
       cx="193.64751"
       cy="20.425606"
       rx="5.4958353"
       ry="4.8467541" />
    <ellipse
       style="fill:#704d23;fill-opacity:1;stroke-width:1.02875"
       id="path2017"
       cx="208.11987"
       cy="20.425606"
       rx="7.8773637"
       ry="4.1543603" />
    <ellipse
       style="fill:#4c2e13;fill-opacity:1;stroke-width:1.02875"
       id="path2230"
       cx="203.54002"
       cy="23.887573"
       rx="20.884174"
       ry="3.461967" />
    <ellipse
       style="fill:#4c2e13;fill-opacity:1;stroke-width:1.02875"
       id="path2232"
       cx="197.1282"
       cy="98.666061"
       rx="7.1445856"
       ry="3.1157703" />
    <ellipse
       style="fill:#4c2e13;fill-opacity:1;stroke-width:1.02875"
       id="path2236"
       cx="198.77695"
       cy="174.48314"
       rx="3.2975011"
       ry="1.7309835" />
    <ellipse
       style="fill:#4c2e13;fill-opacity:1;stroke-width:1.02875"
       id="path2240"
       cx="196.94501"
       cy="43.620785"
       rx="5.1294465"
       ry="1.3847868" />
    <ellipse
       style="fill:#4c2e13;fill-opacity:1;stroke-width:1.02875"
       id="path2242"
       cx="203.35683"
       cy="99.704651"
       rx="18.869034"
       ry="1.3847868" />
    <ellipse
       style="fill:#4c2e13;fill-opacity:1;stroke-width:1.02875"
       id="path2244"
       cx="183.02222"
       cy="99.531555"
       rx="8.4269476"
       ry="1.2116885" />
    <ellipse
       style="fill:#4c2e13;fill-opacity:1;stroke-width:1.02875"
       id="path2246"
       cx="181.55667"
       cy="24.753065"
       rx="9.8925028"
       ry="1.9040819" />
    <ellipse
       style="fill:#4c2e13;fill-opacity:1;stroke-width:1.02875"
       id="path2248"
       cx="200.05931"
       cy="45.005573"
       rx="7.8773637"
       ry="1.0385901" />
  </g>
</svg>
